<svg xmlns="http://www.w3.org/2000/svg" version="1.1" xlink="http://www.w3.org/1999/xlink" xmlns:svgjs="http://svgjs.com/svgjs" width="100%" height="100%" preserveAspectRatio="xMidYMid meet" viewBox="5 ,50 ,300 ,50" overflow="visible">

  <g id="SvgjsG76385" transform="scale(0.36396245908687747)" opacity="1">
    <g id="SvgjsG76389" class="gehDR0axc" transform="translate(59.12624832408977, 59.12624832408976) scale(2.856353119153714) rotate(44, 50, 50)" light-content="false" non-strokable="false" fill="url(#SvgjsLinearGradientX_O9EXAhg)">
      <path d="M24 0h76v76c0 13.255-10.745 24-24 24H0V24C0 10.745 10.745 0 24 0z">
      </path>
    </g>
    <g id="SvgjsG76390" class="Mk98NTOnwa" transform="translate(71.8787059211753, 186.86448662051816) scale(0.4666666666666667)" stroke="#d61111" stroke-width="1.8349112860948853px" light-content="true" non-strokable="false" fill="#303030">
      <path d="M21.719 5L5 21.719V78.28L21.719 95h56.563L95 78.281V21.72L78.282 5zm1.5 3.125h53.563l15.093 15.094V76.78L76.782 91.875H23.219L8.125 76.781V23.22z">
      </path>
    </g>
   <g id="SvgjsG76391" class="text" transform="translate(241.98808993394084, 216.495584918998) scale(1)" light-content="true" fill="#fd0404">
      <path d="M-102.92 -14.04L-102.92 0L-96.19 0C-94.02 0.01 -92.25 -0.61 -90.89 -1.85C-90.22 -2.44 -89.7 -3.18 -89.32 -4.05C-88.94 -4.92 -88.75 -5.94 -88.75 -7.1C-88.75 -8.27 -89 -9.42 -89.5 -10.56C-89.99 -11.69 -90.72 -12.6 -91.69 -13.29C-92.19 -13.65 -92.75 -13.93 -93.38 -14.13C-94.01 -14.33 -94.87 -14.43 -95.96 -14.43C-97.04 -14.43 -99.36 -14.3 -102.92 -14.04ZM-97.45 -9.58C-97.03 -10.07 -96.57 -10.32 -96.06 -10.32C-95.55 -10.32 -95.14 -10.09 -94.83 -9.64C-94.51 -9.18 -94.35 -8.69 -94.35 -8.16C-94.35 -7.06 -95.05 -6.01 -96.44 -5.01C-96.81 -4.75 -97.14 -4.49 -97.45 -4.23Z M-77.42 -6.8L-77.42 -11.32C-77.91 -11.27 -78.38 -11.11 -78.83 -10.84C-79.27 -10.57 -79.64 -10.21 -79.94 -9.76L-79.94 -10.92L-85.23 -10.92L-85.23 0L-79.94 0L-79.94 -5.1C-79.93 -5.45 -79.65 -5.82 -79.08 -6.21C-78.51 -6.61 -77.96 -6.8 -77.42 -6.8Z M-66.5 -7.81C-66.17 -7.65 -66.01 -7.34 -66.01 -6.88C-66.01 -6.42 -66.17 -5.91 -66.49 -5.33C-66.82 -4.75 -67.19 -4.26 -67.62 -3.86C-67.82 -3.67 -68.03 -3.51 -68.23 -3.4C-68.44 -3.28 -68.64 -3.23 -68.82 -3.23C-69.01 -3.23 -69.17 -3.25 -69.3 -3.31C-69.66 -3.48 -69.84 -3.8 -69.84 -4.28C-69.84 -4.75 -69.69 -5.28 -69.38 -5.84C-69.07 -6.41 -68.68 -6.9 -68.23 -7.29C-68.01 -7.48 -67.79 -7.63 -67.57 -7.74C-67.34 -7.85 -67.14 -7.9 -66.96 -7.9C-66.77 -7.9 -66.62 -7.87 -66.5 -7.81ZM-68.21 0.33C-67.09 0.32 -66.05 0.08 -65.07 -0.4C-64.09 -0.88 -63.31 -1.56 -62.72 -2.44C-62.14 -3.32 -61.85 -4.33 -61.85 -5.48C-61.86 -7.26 -62.47 -8.68 -63.68 -9.74C-64.89 -10.81 -66.39 -11.34 -68.17 -11.34C-69.95 -11.34 -71.45 -10.79 -72.66 -9.71C-73.88 -8.62 -74.48 -7.22 -74.48 -5.52C-74.48 -3.81 -73.84 -2.39 -72.54 -1.27C-71.33 -0.21 -69.88 0.33 -68.21 0.33Z M-45.6 -6.93C-45.6 -8.2 -45.98 -9.26 -46.75 -10.09C-47.52 -10.92 -48.63 -11.34 -50.08 -11.34C-51.52 -11.34 -52.9 -10.64 -54.22 -9.24L-55.44 -10.92L-58.32 -10.92L-58.32 2.85L-53.1 2.85L-53.1 0C-52.17 -0.02 -51.34 -0.13 -50.6 -0.35C-49.19 -0.77 -48.08 -1.46 -47.26 -2.44C-46.15 -3.76 -45.6 -5.25 -45.6 -6.93ZM-50.47 -7.64C-50.12 -7.5 -49.94 -7.23 -49.94 -6.82C-49.94 -5.8 -50.63 -4.8 -52.01 -3.81C-52.25 -3.64 -52.46 -3.5 -52.66 -3.38C-52.85 -3.26 -53 -3.16 -53.1 -3.09L-53.1 -5.62C-52.87 -6.16 -52.55 -6.65 -52.12 -7.07C-51.7 -7.5 -51.3 -7.71 -50.93 -7.71C-50.75 -7.71 -50.6 -7.68 -50.47 -7.64Z M-33.71 0.03C-31.61 -0.53 -30.12 -1.64 -29.24 -3.3C-28.79 -4.16 -28.56 -4.98 -28.56 -5.77C-28.56 -7.26 -28.99 -8.51 -29.84 -9.54C-30.69 -10.56 -31.88 -11.07 -33.41 -11.07C-33.63 -11.07 -33.89 -11.05 -34.18 -11C-35.26 -10.8 -36.17 -10.35 -36.93 -9.63L-36.93 -14.79L-42.05 -14.79L-42.05 -0.14C-40 0.18 -38.3 0.34 -36.93 0.34C-35.57 0.34 -34.49 0.24 -33.71 0.03ZM-34.4 -7.42C-34.24 -7.42 -34.11 -7.38 -34 -7.31C-33.68 -7.11 -33.53 -6.75 -33.53 -6.21C-33.53 -5.46 -33.81 -4.73 -34.37 -4.02C-34.93 -3.31 -35.5 -2.95 -36.09 -2.95L-36.96 -2.95L-36.96 -6.27C-36.02 -7.03 -35.17 -7.42 -34.4 -7.42Z M-20.03 0L-20.03 -14.79L-25.01 -14.79L-25.01 0Z M-8.54 -7.81C-8.21 -7.65 -8.04 -7.34 -8.04 -6.88C-8.04 -6.42 -8.21 -5.91 -8.53 -5.33C-8.85 -4.75 -9.23 -4.26 -9.65 -3.86C-9.86 -3.67 -10.06 -3.51 -10.27 -3.4C-10.47 -3.28 -10.67 -3.23 -10.86 -3.23C-11.04 -3.23 -11.2 -3.25 -11.33 -3.31C-11.7 -3.48 -11.88 -3.8 -11.88 -4.28C-11.88 -4.75 -11.72 -5.28 -11.41 -5.84C-11.1 -6.41 -10.72 -6.9 -10.26 -7.29C-10.04 -7.48 -9.82 -7.63 -9.6 -7.74C-9.38 -7.85 -9.17 -7.9 -8.99 -7.9C-8.8 -7.9 -8.65 -7.87 -8.54 -7.81ZM-10.24 0.33C-9.13 0.32 -8.08 0.08 -7.1 -0.4C-6.13 -0.88 -5.34 -1.56 -4.76 -2.44C-4.17 -3.32 -3.88 -4.33 -3.89 -5.48C-3.89 -7.26 -4.5 -8.68 -5.72 -9.74C-6.93 -10.81 -8.43 -11.34 -10.21 -11.34C-11.99 -11.34 -13.49 -10.79 -14.7 -9.71C-15.91 -8.62 -16.52 -7.22 -16.52 -5.52C-16.52 -3.81 -15.87 -2.39 -14.57 -1.27C-13.36 -0.21 -11.92 0.33 -10.24 0.33Z M5.95 -3.33C5.83 -3.34 5.71 -3.35 5.59 -3.37C5.15 -3.47 4.92 -3.89 4.92 -4.63C4.92 -5.37 5.23 -6.09 5.85 -6.79C6.12 -7.1 6.42 -7.34 6.75 -7.52C7.07 -7.71 7.38 -7.8 7.67 -7.8C7.96 -7.8 8.18 -7.73 8.34 -7.59L8.34 -10.98C7.66 -11.23 6.91 -11.36 6.07 -11.36C4.04 -11.36 2.4 -10.78 1.13 -9.64C-0.14 -8.5 -0.77 -7.01 -0.77 -5.17C-0.77 -4.25 -0.6 -3.46 -0.26 -2.78C0.42 -1.44 1.57 -0.5 3.19 0.02C4.82 0.54 6.59 0.44 8.51 -0.29L8.51 -4.59C7.39 -3.75 6.54 -3.33 5.95 -3.33Z M17.18 -3.54L19.37 0L24.74 0L20.82 -6.15L24.19 -10.92L19.01 -10.92L16.94 -7.66L16.94 -14.79L12.39 -14.79L12.39 0L17.03 0L17.03 -3.24C17.04 -3.31 17.09 -3.41 17.18 -3.54Z M34.27 -7.8L34.25 -7.59L34.08 -6.25L32.16 -5.82C32.22 -6.19 32.27 -6.53 32.31 -6.86C32.34 -7.19 32.39 -7.47 32.48 -7.72C32.64 -8.23 33 -8.52 33.55 -8.57C34.03 -8.57 34.27 -8.31 34.27 -7.8ZM33.08 -3.8C34.74 -3.8 36.06 -4.2 37.04 -4.99C38.02 -5.79 38.51 -6.7 38.51 -7.73C38.51 -8.75 38.11 -9.61 37.29 -10.31C36.47 -11.01 35.27 -11.36 33.67 -11.36C32.44 -11.36 31.3 -11.11 30.24 -10.63C29.17 -10.14 28.33 -9.43 27.71 -8.49C27.04 -7.46 26.71 -6.31 26.71 -5.02C26.71 -3.31 27.3 -1.97 28.49 -1C29.58 -0.12 30.88 0.33 32.4 0.33C35.04 0.33 37.01 -0.24 38.32 -1.37L37.78 -4.1C37.18 -3.59 36.5 -3.22 35.75 -2.99C35 -2.76 34.37 -2.65 33.87 -2.65C33.68 -2.65 33.48 -2.65 33.28 -2.67C32.53 -2.74 32.16 -3.12 32.16 -3.81C32.3 -3.8 32.45 -3.8 32.6 -3.8Z M48.07 -11.32C45.41 -11.32 43.47 -10.37 42.27 -8.46C41.66 -7.49 41.35 -6.27 41.35 -4.78C41.35 -3.29 41.87 -2.07 42.92 -1.12C43.97 -0.17 45.19 0.31 46.59 0.31C48.34 0.31 49.75 -0.4 50.82 -1.82L52.07 0L55.34 0L55.34 -14.79L50.22 -14.79L50.22 -10.98C49.48 -11.21 48.76 -11.32 48.07 -11.32ZM50.22 -7.61L50.22 -4.48C49.28 -3.71 48.43 -3.33 47.67 -3.33C47.51 -3.34 47.38 -3.37 47.27 -3.45C46.96 -3.64 46.8 -4 46.8 -4.5C46.8 -5.01 46.94 -5.52 47.22 -6.04C47.35 -6.28 47.51 -6.5 47.7 -6.71C48.05 -7.15 48.45 -7.46 48.89 -7.66C49.11 -7.75 49.34 -7.8 49.57 -7.8C49.8 -7.8 50.02 -7.73 50.22 -7.61Z M63.89 -15.45C63.47 -15.81 62.83 -15.99 61.97 -15.99C61.12 -15.99 60.41 -15.73 59.87 -15.22C59.62 -15 59.44 -14.75 59.31 -14.47C59.19 -14.19 59.13 -13.92 59.13 -13.66C59.13 -13.4 59.17 -13.17 59.26 -12.96C59.57 -12.21 60.34 -11.83 61.58 -11.83C62.47 -11.83 63.17 -12.06 63.7 -12.53C64.24 -13 64.5 -13.51 64.5 -14.07C64.51 -14.63 64.3 -15.09 63.89 -15.45ZM64.35 0L64.35 -10.92L59.26 -10.92L59.26 0Z M76.54 -0.79L76.54 -3.02C75.63 -3.02 74.98 -3.21 74.61 -3.58C74.24 -3.95 74.05 -4.55 74.05 -5.38L74.05 -8.14L76.54 -8.14L76.54 -10.92L74.05 -10.92L74.05 -14.41L68.8 -13.88L68.8 -10.92L67.79 -10.92L67.79 -8.14L68.8 -8.14L68.8 -3.57C68.8 -2.37 69.19 -1.42 69.97 -0.72C70.74 -0.01 71.76 0.34 73 0.34C74.25 0.34 75.43 -0.04 76.54 -0.79Z M87.52 -7.81C87.85 -7.65 88.02 -7.34 88.02 -6.88C88.02 -6.42 87.86 -5.91 87.53 -5.33C87.21 -4.75 86.84 -4.26 86.41 -3.86C86.2 -3.67 86 -3.51 85.79 -3.4C85.59 -3.28 85.39 -3.23 85.2 -3.23C85.02 -3.23 84.86 -3.25 84.73 -3.31C84.37 -3.48 84.18 -3.8 84.18 -4.28C84.18 -4.75 84.34 -5.28 84.65 -5.84C84.96 -6.41 85.34 -6.9 85.8 -7.29C86.02 -7.48 86.24 -7.63 86.46 -7.74C86.68 -7.85 86.89 -7.9 87.07 -7.9C87.26 -7.9 87.41 -7.87 87.52 -7.81ZM85.82 0.33C86.93 0.32 87.98 0.08 88.96 -0.4C89.94 -0.88 90.72 -1.56 91.3 -2.44C91.89 -3.32 92.18 -4.33 92.17 -5.48C92.17 -7.26 91.56 -8.68 90.35 -9.74C89.13 -10.81 87.64 -11.34 85.85 -11.34C84.07 -11.34 82.58 -10.79 81.36 -9.71C80.15 -8.62 79.54 -7.22 79.54 -5.52C79.54 -3.81 80.19 -2.39 81.49 -1.27C82.7 -0.21 84.14 0.33 85.82 0.33Z M103.52 -6.8L103.52 -11.32C103.02 -11.27 102.55 -11.11 102.11 -10.84C101.67 -10.57 101.29 -10.21 101 -9.76L101 -10.92L95.7 -10.92L95.7 0L101 0L101 -5.1C101 -5.45 101.29 -5.82 101.86 -6.21C102.43 -6.61 102.98 -6.8 103.52 -6.8Z">
      </path>
    </g>
    <g id="SvgjsG76392" class="PMkQvGTUJW" transform="translate(76.6938148259457, 191.5577150159032) scale(0.3840245664267796)" light-content="true" non-strokable="false" fill="#d0021b">
      <path d="M36.703 11.011L9.638 26.636v12.121l27.065-15.626 27.064 15.626V26.636zm26.595 78.081L36.233 73.467V61.348l27.065 15.625 27.064-15.625v12.119z">
      </path>
      <path d="M9.638 42.012l27.065-15.626 10.495 6.06-27.064 15.626v31.252l-10.496-6.06zm67.445-23.14L50.018 3.247l-10.496 6.06 27.064 15.625v31.252l10.497-6.06z">
      </path>
      <path d="M23.01 81.127l.001-31.251 10.496-6.06v31.252l27.064 15.625-10.496 6.061zm67.352-23.035V26.84l-10.496-6.06v31.251L52.802 67.658l10.496 6.061z">
      </path>
    </g>
  </g>
</svg>
